<svg width="19" height="10" viewBox="0 0 19 10" fill="none" xmlns="http://www.w3.org/2000/svg">
<path d="M5.83523 5.00152C5.83523 5.46176 6.20832 5.83485 6.66856 5.83485H11.6686C12.1288 5.83485 12.5019 5.46176 12.5019 5.00152C12.5019 4.54128 12.1288 4.16819 11.6686 4.16819H6.66856C6.20832 4.16819 5.83523 4.54128 5.83523 5.00152Z" fill="white"/>
<path d="M6.66856 8.33485H5.17689C3.40231 8.38222 1.88285 7.07209 1.66856 5.30985C1.58159 4.37371 1.89399 3.44437 2.52878 2.75086C3.16358 2.05734 4.06173 1.66415 5.00189 1.66819H6.66856C7.1288 1.66819 7.50189 1.29509 7.50189 0.834853C7.50189 0.374616 7.1288 0.00151996 6.66856 0.00151996H5.17689C2.62296 -0.0326091 0.433724 1.819 0.0435601 4.34319C-0.146197 5.77183 0.289728 7.21287 1.23955 8.29679C2.18937 9.3807 3.5607 10.0021 5.00189 10.0015H6.66856C7.1288 10.0015 7.50189 9.62842 7.50189 9.16819C7.50189 8.70795 7.1288 8.33485 6.66856 8.33485Z" fill="white"/>
<path d="M18.3352 4.36819C17.9497 1.81038 15.7212 -0.0609716 13.1352 0.00151985H11.8769C11.2019 0.00151985 10.8352 0.37652 10.8352 0.834853C10.8352 1.29509 11.2083 1.66819 11.6686 1.66819H13.1602C14.9348 1.62082 16.4543 2.93095 16.6686 4.69319C16.7555 5.62933 16.4431 6.55867 15.8083 7.25218C15.1735 7.9457 14.2754 8.33888 13.3352 8.33485H11.6686C11.2083 8.33485 10.8352 8.70795 10.8352 9.16819C10.8352 9.62842 11.2083 10.0015 11.6686 10.0015H13.3352C14.7787 10.0132 16.1568 9.40036 17.115 8.32075C18.0732 7.24114 18.5181 5.80008 18.3352 4.36819Z" fill="white"/>
</svg>
