<svg width="22" height="22" viewBox="0 0 22 22" fill="none" xmlns="http://www.w3.org/2000/svg">
<path d="M15.4795 13.6847C16.0509 13.8465 16.4959 14.0642 16.491 14.5951C16.491 14.9795 16.2279 15.4349 15.4795 15.526V13.6847Z" fill="#637381"/>
<path d="M14.8421 12.5111C14.2907 12.3492 13.8601 12.1821 13.8601 11.7117C13.8602 11.2413 14.2503 10.9023 14.8421 10.8568V12.5111Z" fill="#637381"/>
<path fill-rule="evenodd" clip-rule="evenodd" d="M18.3333 2.75C19.3458 2.75 20.1667 3.57081 20.1667 4.58333V17.4167C20.1667 18.4292 19.3458 19.25 18.3333 19.25H3.66666C2.65414 19.25 1.83333 18.4292 1.83333 17.4167V4.58333C1.83333 3.57081 2.65414 2.75 3.66666 2.75H18.3333ZM15.1545 9.16667C14.9818 9.16437 14.8395 9.30227 14.8367 9.4755V10.0529C13.6985 10.1338 12.9246 10.8367 12.9246 11.7725C12.9246 12.9208 13.9009 13.2393 14.8367 13.4922V15.5162C14.343 15.4499 13.8772 15.2452 13.4958 14.9245C13.424 14.8674 13.3353 14.8352 13.2433 14.8332C13.0102 14.8494 12.8305 15.0444 12.8333 15.2781C12.8329 15.3801 12.8727 15.4783 12.9443 15.5511C13.4669 16.0216 14.1395 16.2928 14.8421 16.3156V16.8822C14.8502 17.0553 14.9976 17.1889 15.1706 17.1803C15.3411 17.1803 15.4795 17.042 15.4795 16.8715V16.3049C16.8603 16.2137 17.4167 15.3743 17.4167 14.484C17.4167 13.2903 16.4153 12.926 15.4795 12.6731V10.8926C15.8601 10.9568 16.2191 11.1128 16.526 11.3473C16.5871 11.3893 16.6593 11.4125 16.7336 11.4136C16.9719 11.4136 17.1662 11.2213 17.1687 10.983C17.1691 10.8809 17.1294 10.7827 17.0577 10.71C16.614 10.33 16.0574 10.106 15.4741 10.0726V9.4755C15.4739 9.30516 15.3357 9.16756 15.1653 9.16756C15.1618 9.16706 15.158 9.16667 15.1545 9.16667ZM5.27083 8.25C4.89113 8.25 4.58333 8.5578 4.58333 8.9375C4.58333 9.3172 4.89113 9.625 5.27083 9.625H10.3125C10.6922 9.625 11 9.3172 11 8.9375C11 8.5578 10.6922 8.25 10.3125 8.25H5.27083ZM5.27083 5.5C4.89113 5.5 4.58333 5.8078 4.58333 6.1875C4.58333 6.5672 4.89113 6.875 5.27083 6.875H10.3125C10.6922 6.875 11 6.5672 11 6.1875C11 5.8078 10.6922 5.5 10.3125 5.5H5.27083Z" fill="#637381"/>
</svg>
